# xmcd CD Database Entry
#
# Track frame offsets:
# 150
# 10201
# 42247
# 52067
# 66742
# 98939
# 110028
# 138055
# 152483
# 187707
# 202604
# 221434
#
# Disc length: 3340 seconds
#
# Revision: 2
# Processed by: cddbd v1.4PL0 Copyright (c) Steve Scherf et al.
# Submitted via: tcd 2.0b
#
DISCID=a00d0a0c
DTITLE=The Doors - Greatest Hits
DYEAR=1900
DGENRE=
TTITLE0=Hello, I Love You
TTITLE1=Light My Fire
TTITLE2=People Are Strange
TTITLE3=Love Me Two Times
TTITLE4=Riders On The Storm
TTITLE5=Break On Through
TTITLE6=Roadhouse Blues (LIVE)
TTITLE7=Touch Me
TTITLE8=L.A. Woman
TTITLE9=Love Her Madly
TTITLE10=The Ghost Song
TTITLE11=The End (From Apocalypse Now)
EXTD=
EXTT0=
EXTT1=
EXTT2=
EXTT3=
EXTT4=
EXTT5=
EXTT6=
EXTT7=
EXTT8=
EXTT9=
EXTT10=
EXTT11=
PLAYORDER=
